<mxfile host="app.diagrams.net" modified="2022-06-21T18:40:32.643Z" agent="5.0 (Macintosh; Intel Mac OS X 10_15_7) AppleWebKit/537.36 (KHTML, like Gecko) Chrome/102.0.0.0 Safari/537.36" etag="v5-bsxNtes-2tRc1uHFR" version="19.0.3" type="github">
  <diagram id="GReviyzwa2UcqP5kvm8N" name="Page-1">
    <mxGraphModel dx="1500" dy="758" grid="1" gridSize="10" guides="1" tooltips="1" connect="1" arrows="1" fold="1" page="1" pageScale="1" pageWidth="850" pageHeight="1100" math="0" shadow="0">
      <root>
        <mxCell id="0" />
        <mxCell id="1" parent="0" />
        <mxCell id="ea_cThEscpfy-G8hU_xD-6" value="" style="sketch=0;outlineConnect=0;fontColor=#232F3E;gradientColor=none;fillColor=#3F8624;strokeColor=none;dashed=0;verticalLabelPosition=bottom;verticalAlign=top;align=center;html=1;fontSize=12;fontStyle=0;aspect=fixed;pointerEvents=1;shape=mxgraph.aws4.bucket;" parent="1" vertex="1">
          <mxGeometry x="25.5" y="361.5" width="56.74" height="59" as="geometry" />
        </mxCell>
        <mxCell id="ea_cThEscpfy-G8hU_xD-8" value="Labeled Data" style="text;html=1;align=center;verticalAlign=middle;resizable=0;points=[];autosize=1;strokeColor=none;fillColor=none;" parent="1" vertex="1">
          <mxGeometry x="10" y="430" width="90" height="20" as="geometry" />
        </mxCell>
        <mxCell id="ea_cThEscpfy-G8hU_xD-9" value="" style="endArrow=classic;html=1;rounded=0;startArrow=none;" parent="1" source="ea_cThEscpfy-G8hU_xD-11" edge="1">
          <mxGeometry width="50" height="50" relative="1" as="geometry">
            <mxPoint x="285.5" y="410" as="sourcePoint" />
            <mxPoint x="235.5" y="390" as="targetPoint" />
          </mxGeometry>
        </mxCell>
        <mxCell id="ea_cThEscpfy-G8hU_xD-11" value="" style="sketch=0;points=[[0,0,0],[0.25,0,0],[0.5,0,0],[0.75,0,0],[1,0,0],[0,1,0],[0.25,1,0],[0.5,1,0],[0.75,1,0],[1,1,0],[0,0.25,0],[0,0.5,0],[0,0.75,0],[1,0.25,0],[1,0.5,0],[1,0.75,0]];outlineConnect=0;fontColor=#232F3E;gradientColor=#4AB29A;gradientDirection=north;fillColor=#116D5B;strokeColor=#ffffff;dashed=0;verticalLabelPosition=bottom;verticalAlign=top;align=center;html=1;fontSize=12;fontStyle=0;aspect=fixed;shape=mxgraph.aws4.resourceIcon;resIcon=mxgraph.aws4.sagemaker;" parent="1" vertex="1">
          <mxGeometry x="125.5" y="357" width="68" height="68" as="geometry" />
        </mxCell>
        <mxCell id="ea_cThEscpfy-G8hU_xD-12" value="" style="endArrow=none;html=1;rounded=0;" parent="1" source="ea_cThEscpfy-G8hU_xD-6" target="ea_cThEscpfy-G8hU_xD-11" edge="1">
          <mxGeometry width="50" height="50" relative="1" as="geometry">
            <mxPoint x="82.23036271194132" y="390.83475870936354" as="sourcePoint" />
            <mxPoint x="225.5" y="390" as="targetPoint" />
          </mxGeometry>
        </mxCell>
        <mxCell id="ea_cThEscpfy-G8hU_xD-13" value="SageMaker&lt;br&gt;Preprocessing" style="text;html=1;align=center;verticalAlign=middle;resizable=0;points=[];autosize=1;strokeColor=none;fillColor=none;" parent="1" vertex="1">
          <mxGeometry x="110.5" y="425" width="90" height="30" as="geometry" />
        </mxCell>
        <mxCell id="ea_cThEscpfy-G8hU_xD-18" value="" style="edgeStyle=orthogonalEdgeStyle;rounded=0;orthogonalLoop=1;jettySize=auto;html=1;" parent="1" source="ea_cThEscpfy-G8hU_xD-14" target="ea_cThEscpfy-G8hU_xD-16" edge="1">
          <mxGeometry relative="1" as="geometry" />
        </mxCell>
        <mxCell id="ea_cThEscpfy-G8hU_xD-14" value="" style="sketch=0;outlineConnect=0;fontColor=#232F3E;gradientColor=none;fillColor=#3F8624;strokeColor=none;dashed=0;verticalLabelPosition=bottom;verticalAlign=top;align=center;html=1;fontSize=12;fontStyle=0;aspect=fixed;pointerEvents=1;shape=mxgraph.aws4.bucket_with_objects;" parent="1" vertex="1">
          <mxGeometry x="235.5" y="361" width="65.38" height="68" as="geometry" />
        </mxCell>
        <mxCell id="ea_cThEscpfy-G8hU_xD-15" value="Training Ready&lt;br&gt;Data" style="text;html=1;align=center;verticalAlign=middle;resizable=0;points=[];autosize=1;strokeColor=none;fillColor=none;" parent="1" vertex="1">
          <mxGeometry x="218.19" y="430" width="100" height="30" as="geometry" />
        </mxCell>
        <mxCell id="ea_cThEscpfy-G8hU_xD-16" value="" style="sketch=0;outlineConnect=0;fontColor=#232F3E;gradientColor=none;fillColor=#067F68;strokeColor=none;dashed=0;verticalLabelPosition=bottom;verticalAlign=top;align=center;html=1;fontSize=12;fontStyle=0;aspect=fixed;pointerEvents=1;shape=mxgraph.aws4.sagemaker_train;" parent="1" vertex="1">
          <mxGeometry x="335.5" y="358.33000000000004" width="88" height="73.33" as="geometry" />
        </mxCell>
        <mxCell id="ea_cThEscpfy-G8hU_xD-19" value="Training and&lt;br&gt;Hyper parameter &lt;br&gt;Jobs" style="text;html=1;align=center;verticalAlign=middle;resizable=0;points=[];autosize=1;strokeColor=none;fillColor=none;" parent="1" vertex="1">
          <mxGeometry x="308.19" y="440" width="110" height="50" as="geometry" />
        </mxCell>
        <mxCell id="ea_cThEscpfy-G8hU_xD-22" value="" style="edgeStyle=orthogonalEdgeStyle;rounded=0;orthogonalLoop=1;jettySize=auto;html=1;" parent="1" source="ea_cThEscpfy-G8hU_xD-20" target="ea_cThEscpfy-G8hU_xD-16" edge="1">
          <mxGeometry relative="1" as="geometry" />
        </mxCell>
        <mxCell id="ea_cThEscpfy-G8hU_xD-20" value="" style="sketch=0;outlineConnect=0;fontColor=#232F3E;gradientColor=none;fillColor=#B0084D;strokeColor=none;dashed=0;verticalLabelPosition=bottom;verticalAlign=top;align=center;html=1;fontSize=12;fontStyle=0;aspect=fixed;pointerEvents=1;shape=mxgraph.aws4.cloudwatch_metrics_insights;" parent="1" vertex="1">
          <mxGeometry x="349.88" y="220" width="59.23" height="60" as="geometry" />
        </mxCell>
        <mxCell id="ea_cThEscpfy-G8hU_xD-21" value="CloudWatch&lt;br&gt;Evaluation of Metrics" style="text;html=1;align=center;verticalAlign=middle;resizable=0;points=[];autosize=1;strokeColor=none;fillColor=none;" parent="1" vertex="1">
          <mxGeometry x="318.19" y="180" width="130" height="30" as="geometry" />
        </mxCell>
        <mxCell id="FWVHG121I_95i8ndFuR7-1" value="" style="endArrow=classic;html=1;rounded=0;" edge="1" parent="1" source="ea_cThEscpfy-G8hU_xD-16" target="FWVHG121I_95i8ndFuR7-4">
          <mxGeometry width="50" height="50" relative="1" as="geometry">
            <mxPoint x="530" y="410" as="sourcePoint" />
            <mxPoint x="510" y="395" as="targetPoint" />
          </mxGeometry>
        </mxCell>
        <mxCell id="FWVHG121I_95i8ndFuR7-3" value="Model &lt;br&gt;Passes &lt;br&gt;Evaluation" style="text;html=1;align=center;verticalAlign=middle;resizable=0;points=[];autosize=1;strokeColor=none;fillColor=none;" vertex="1" parent="1">
          <mxGeometry x="430" y="340" width="70" height="50" as="geometry" />
        </mxCell>
        <mxCell id="FWVHG121I_95i8ndFuR7-4" value="" style="sketch=0;outlineConnect=0;fontColor=#232F3E;gradientColor=none;fillColor=#3F8624;strokeColor=none;dashed=0;verticalLabelPosition=bottom;verticalAlign=top;align=center;html=1;fontSize=12;fontStyle=0;aspect=fixed;pointerEvents=1;shape=mxgraph.aws4.bucket;" vertex="1" parent="1">
          <mxGeometry x="500" y="361.4" width="65" height="67.6" as="geometry" />
        </mxCell>
        <mxCell id="FWVHG121I_95i8ndFuR7-5" value="Model Artifact&lt;br&gt;" style="text;html=1;align=center;verticalAlign=middle;resizable=0;points=[];autosize=1;strokeColor=none;fillColor=none;" vertex="1" parent="1">
          <mxGeometry x="487.5" y="337" width="90" height="20" as="geometry" />
        </mxCell>
        <mxCell id="FWVHG121I_95i8ndFuR7-6" value="" style="sketch=0;outlineConnect=0;fontColor=#232F3E;gradientColor=none;fillColor=#067F68;strokeColor=none;dashed=0;verticalLabelPosition=bottom;verticalAlign=top;align=center;html=1;fontSize=12;fontStyle=0;aspect=fixed;pointerEvents=1;shape=mxgraph.aws4.sagemaker_model;" vertex="1" parent="1">
          <mxGeometry x="503" y="500" width="59" height="59" as="geometry" />
        </mxCell>
        <mxCell id="FWVHG121I_95i8ndFuR7-7" value="Model Registry&lt;br&gt;" style="text;html=1;align=center;verticalAlign=middle;resizable=0;points=[];autosize=1;strokeColor=none;fillColor=none;" vertex="1" parent="1">
          <mxGeometry x="482.5" y="560" width="100" height="20" as="geometry" />
        </mxCell>
        <mxCell id="FWVHG121I_95i8ndFuR7-8" value="" style="endArrow=classic;startArrow=classic;html=1;rounded=0;" edge="1" parent="1" target="FWVHG121I_95i8ndFuR7-6">
          <mxGeometry width="50" height="50" relative="1" as="geometry">
            <mxPoint x="533" y="430" as="sourcePoint" />
            <mxPoint x="580" y="330" as="targetPoint" />
          </mxGeometry>
        </mxCell>
        <mxCell id="FWVHG121I_95i8ndFuR7-9" value="" style="sketch=0;outlineConnect=0;fontColor=#232F3E;gradientColor=none;fillColor=#4D27AA;strokeColor=none;dashed=0;verticalLabelPosition=bottom;verticalAlign=top;align=center;html=1;fontSize=12;fontStyle=0;aspect=fixed;pointerEvents=1;shape=mxgraph.aws4.endpoint;" vertex="1" parent="1">
          <mxGeometry x="620" y="360.4" width="68.6" height="68.6" as="geometry" />
        </mxCell>
        <mxCell id="FWVHG121I_95i8ndFuR7-10" value="" style="endArrow=classic;html=1;rounded=0;" edge="1" parent="1" source="FWVHG121I_95i8ndFuR7-4" target="FWVHG121I_95i8ndFuR7-9">
          <mxGeometry width="50" height="50" relative="1" as="geometry">
            <mxPoint x="660" y="370" as="sourcePoint" />
            <mxPoint x="710" y="320" as="targetPoint" />
          </mxGeometry>
        </mxCell>
        <mxCell id="FWVHG121I_95i8ndFuR7-11" value="Real Time&lt;br&gt;Endpoint&lt;br&gt;" style="text;html=1;align=center;verticalAlign=middle;resizable=0;points=[];autosize=1;strokeColor=none;fillColor=none;" vertex="1" parent="1">
          <mxGeometry x="618.6" y="327" width="70" height="30" as="geometry" />
        </mxCell>
      </root>
    </mxGraphModel>
  </diagram>
</mxfile>
